{
  "accessors": [
    {
      "bufferView": 2,
      "componentType": 5126,
      "count": 12111,
      "max": [
        75.07026672363281,
        173.72906494140625,
        150.67425537109375
      ],
      "min": [
        -75.07026672363281,
        -0.6320614814758301,
        -121.16445922851563
      ],
      "type": "VEC3"
    },
    {
      "bufferView": 2,
      "byteOffset": 145332,
      "componentType": 5126,
      "count": 12111,
      "max": [
        1.0,
        1.0,
        1.0
      ],
      "min": [
        -1.0,
        -1.0,
        -1.0
      ],
      "type": "VEC3"
    },
    {
      "bufferView": 3,
      "componentType": 5126,
      "count": 12111,
      "max": [
        1.0,
        1.0,
        1.0,
        1.0
      ],
      "min": [
        -1.0,
        -1.0,
        -1.0,
        -1.0
      ],
      "type": "VEC4"
    },
    {
      "bufferView": 1,
      "componentType": 5126,
      "count": 12111,
      "max": [
        0.9952298402786255,
        0.9928581118583679
      ],
      "min": [
        0.0,
        0.0
      ],
      "type": "VEC2"
    },
    {
      "bufferView": 1,
      "byteOffset": 96888,
      "componentType": 5126,
      "count": 12111,
      "max": [
        0.9952298402786255,
        0.9928581118583679
      ],
      "min": [
        0.0,
        0.0
      ],
      "type": "VEC2"
    },
    {
      "bufferView": 1,
      "byteOffset": 193776,
      "componentType": 5126,
      "count": 12111,
      "max": [
        0.9952298402786255,
        0.9928581118583679
      ],
      "min": [
        0.0,
        0.0
      ],
      "type": "VEC2"
    },
    {
      "bufferView": 0,
      "componentType": 5125,
      "count": 37224,
      "type": "SCALAR"
    },
    {
      "bufferView": 2,
      "byteOffset": 290664,
      "componentType": 5126,
      "count": 170,
      "max": [
        74.50575256347656,
        158.1222686767578,
        111.83021545410156
      ],
      "min": [
        -74.50575256347656,
        111.47455596923828,
        -111.69155883789063
      ],
      "type": "VEC3"
    },
    {
      "bufferView": 2,
      "byteOffset": 292704,
      "componentType": 5126,
      "count": 170,
      "max": [
        0.8020521402359009,
        0.5823073387145996,
        0.9920111894607544
      ],
      "min": [
        -0.8031213283538818,
        -0.590408205986023,
        -0.9999663233757019
      ],
      "type": "VEC3"
    },
    {
      "bufferView": 1,
      "byteOffset": 290664,
      "componentType": 5126,
      "count": 170,
      "max": [
        0.468288779258728,
        0.9897286295890808
      ],
      "min": [
        0.02855292521417141,
        0.07081516087055206
      ],
      "type": "VEC2"
    },
    {
      "bufferView": 0,
      "byteOffset": 148896,
      "componentType": 5125,
      "count": 588,
      "type": "SCALAR"
    }
  ],
  "asset": {
    "extras": {
      "author": "rSquare (https://sketchfab.com/rSquare)",
      "license": "CC-BY-4.0 (http://creativecommons.org/licenses/by/4.0/)",
      "source": "https://sketchfab.com/3d-models/auto-rickshaw-44776bcb34e04c1a8b9c18a70376304e",
      "title": "Auto Rickshaw"
    },
    "generator": "Sketchfab-14.12.0",
    "version": "2.0"
  },
  "bufferViews": [
    {
      "buffer": 0,
      "byteLength": 151248,
      "name": "floatBufferViews",
      "target": 34963
    },
    {
      "buffer": 0,
      "byteLength": 292024,
      "byteOffset": 151248,
      "byteStride": 8,
      "name": "floatBufferViews",
      "target": 34962
    },
    {
      "buffer": 0,
      "byteLength": 294744,
      "byteOffset": 443272,
      "byteStride": 12,
      "name": "floatBufferViews",
      "target": 34962
    },
    {
      "buffer": 0,
      "byteLength": 193776,
      "byteOffset": 738016,
      "byteStride": 16,
      "name": "floatBufferViews",
      "target": 34962
    }
  ],
  "buffers": [
    {
      "byteLength": 931792,
      "uri": "scene.bin"
    }
  ],
  "images": [
    {
      "uri": "textures/lambert1_baseColor.png"
    },
    {
      "uri": "textures/lambert1_metallicRoughness.png"
    },
    {
      "uri": "textures/lambert1_normal.png"
    }
  ],
  "materials": [
    {
      "doubleSided": true,
      "name": "lambert1",
      "normalTexture": {
        "index": 2
      },
      "pbrMetallicRoughness": {
        "baseColorTexture": {
          "index": 0
        },
        "metallicFactor": 0.0,
        "metallicRoughnessTexture": {
          "index": 1
        }
      }
    },
    {
      "alphaMode": "BLEND",
      "doubleSided": true,
      "name": "blinn1",
      "pbrMetallicRoughness": {
        "baseColorFactor": [
          0.025191469456802472,
          0.025191469456802472,
          0.025191469456802472,
          0.24228645268252244
        ],
        "metallicFactor": 0.0,
        "roughnessFactor": 0.9207483816249483
      }
    }
  ],
  "meshes": [
    {
      "name": "persp5_lambert1_0",
      "primitives": [
        {
          "attributes": {
            "NORMAL": 1,
            "POSITION": 0,
            "TANGENT": 2,
            "TEXCOORD_0": 3,
            "TEXCOORD_1": 4,
            "TEXCOORD_2": 5
          },
          "indices": 6,
          "material": 0,
          "mode": 4
        }
      ]
    },
    {
      "name": "persp5_blinn1_0",
      "primitives": [
        {
          "attributes": {
            "NORMAL": 8,
            "POSITION": 7,
            "TEXCOORD_0": 9
          },
          "indices": 10,
          "material": 1,
          "mode": 4
        }
      ]
    }
  ],
  "nodes": [
    {
      "children": [
        1
      ],
      "matrix": [
        1.0,
        0.0,
        0.0,
        0.0,
        0.0,
        2.220446049250313e-16,
        -1.0,
        0.0,
        0.0,
        1.0,
        2.220446049250313e-16,
        0.0,
        0.0,
        0.0,
        0.0,
        1.0
      ],
      "name": "Sketchfab_model"
    },
    {
      "children": [
        2
      ],
      "matrix": [
        0.009999999776482582,
        0.0,
        0.0,
        0.0,
        0.0,
        0.0,
        0.009999999776482582,
        0.0,
        0.0,
        -0.009999999776482582,
        0.0,
        0.0,
        0.0,
        0.0,
        0.0,
        1.0
      ],
      "name": "8cf46cfe2a8f47bc914062c8d5bf927d.fbx"
    },
    {
      "children": [
        3
      ],
      "name": "RootNode"
    },
    {
      "children": [
        4,
        5
      ],
      "name": "persp5"
    },
    {
      "mesh": 0,
      "name": "persp5_lambert1_0"
    },
    {
      "mesh": 1,
      "name": "persp5_blinn1_0"
    }
  ],
  "samplers": [
    {
      "magFilter": 9729,
      "minFilter": 9987,
      "wrapS": 10497,
      "wrapT": 10497
    }
  ],
  "scene": 0,
  "scenes": [
    {
      "name": "Sketchfab_Scene",
      "nodes": [
        0
      ]
    }
  ],
  "textures": [
    {
      "sampler": 0,
      "source": 0
    },
    {
      "sampler": 0,
      "source": 1
    },
    {
      "sampler": 0,
      "source": 2
    }
  ]
}
